#tb 0: 1/25
#media_type 0: video
#codec_id 0: rawvideo
#dimensions 0: 704x288
#sar 0: 0/1
0,          0,          0,        1,   304128, 0x901a13ed
0,          1,          1,        1,   304128, 0x793ccaa2
0,          2,          2,        1,   304128, 0x9eafeca3
0,          3,          3,        1,   304128, 0x18f0016f
0,          4,          4,        1,   304128, 0xc90f6cb3
0,          5,          5,        1,   304128, 0x82d751db
0,          6,          6,        1,   304128, 0x7cd2f846
0,          7,          7,        1,   304128, 0xb3801767
0,          8,          8,        1,   304128, 0x3372005b
0,          9,          9,        1,   304128, 0x822a722a
0,         10,         10,        1,   304128, 0x05908ec0
0,         11,         11,        1,   304128, 0xabbbf9b9
0,         12,         12,        1,   304128, 0x1b345ad1
0,         13,         13,        1,   304128, 0x6ccd4455
0,         14,         14,        1,   304128, 0xad541bc9
0,         15,         15,        1,   304128, 0x16231e0a
0,         16,         16,        1,   304128, 0xb2b29c30
0,         17,         17,        1,   304128, 0x5c6d7190
0,         18,         18,        1,   304128, 0x733cd598
0,         19,         19,        1,   304128, 0x605fb80d
0,         20,         20,        1,   304128, 0x9f21eaef
0,         21,         21,        1,   304128, 0xb6f14824
0,         22,         22,        1,   304128, 0x78933ab2
0,         23,         23,        1,   304128, 0x3fd2d1de
0,         24,         24,        1,   304128, 0x62c1f3bb
0,         25,         25,        1,   304128, 0x2d06327b
0,         26,         26,        1,   304128, 0xdbd22d79
0,         27,         27,        1,   304128, 0x9dc9b11d
0,         28,         28,        1,   304128, 0x059148b9
0,         29,         29,        1,   304128, 0x04a1ca1c
0,         30,         30,        1,   304128, 0xba39d594
0,         31,         31,        1,   304128, 0xc38e8a4b
0,         32,         32,        1,   304128, 0x2ea7f929
0,         33,         33,        1,   304128, 0xfd96f460
0,         34,         34,        1,   304128, 0x952b86f0
0,         35,         35,        1,   304128, 0x6bd82a05
0,         36,         36,        1,   304128, 0x40b96f56
0,         37,         37,        1,   304128, 0x867003f0
0,         38,         38,        1,   304128, 0xe6feb298
0,         39,         39,        1,   304128, 0xec409dba
0,         40,         40,        1,   304128, 0x9816b24a
0,         41,         41,        1,   304128, 0xe2fc3c1f
0,         42,         42,        1,   304128, 0x67227f61
0,         43,         43,        1,   304128, 0x16e141d8
0,         44,         44,        1,   304128, 0xed5408e2
0,         45,         45,        1,   304128, 0x8a14fce6
0,         46,         46,        1,   304128, 0xecbda7fe
0,         47,         47,        1,   304128, 0xfa0c8b93
0,         48,         48,        1,   304128, 0x47fe6915
0,         49,         49,        1,   304128, 0x9570b1e3
